Simulation
nRows=48
nColumns=15
endheader
time  TH_x TH_y TH_z SC_y  SC_z  SC_x  AC_y  AC_z  AC_x  GH_y  GH_z  GH_yy  EL_x  PS_y
0.0  0.000000  0.000000  0.000000  -26.30785572149939  -1.8394498768410068  51.666862458523234  44.50629682916764  -29.848928310286542  -42.559286142198275  39.20910894796208  14.758955715625847  2.5176296395064868  26.572784501569455  0.000000
0.039  0.000000  0.000000  0.000000  -26.28677409178775  -1.6688508989031103  51.08368344289953  44.597152930008804  -29.289159262052795  -42.40118911860981  39.36005436396832  14.532310882950496  2.554081385734306  26.516174629776405  0.000000
0.078  0.000000  0.000000  0.000000  -26.25253863732884  -1.4342807882116457  50.50158512424436  44.645840166481165  -28.824763698310047  -42.102375442033164  39.73998709417598  14.015267134680329  2.564032738839025  26.180276882049117  0.000000
0.11699999999999999  0.000000  0.000000  0.000000  -26.292421915997124  -1.4344520198728483  50.01435628161673  44.78344549516915  -28.492940661482013  -41.770352330356594  40.161552071138246  13.56223424429914  2.1604276419366006  25.70132126983405  0.000000
0.156  0.000000  0.000000  0.000000  -26.179606784449383  -1.496907112172801  49.6105036636748  44.98713969386893  -28.208612139800543  -41.40723997465883  40.75537828723863  13.32689805794307  1.3629420363651885  25.3218034912909  0.000000
0.195  0.000000  0.000000  0.000000  -26.00642476031104  -1.6040146275076779  49.27454851647241  45.23522365083964  -27.928260124148565  -41.027446168110096  41.55502357341996  13.446270017014083  0.15874987198873924  25.03398992025615  0.000000
0.23399999999999999  0.000000  0.000000  0.000000  -25.80893769011393  -1.7246729237739278  48.978802310873256  45.52535952518534  -27.64812726465852  -40.66367877902489  42.574479274207604  14.011919303099534  -1.504210348845164  24.843225058067752  0.000000
0.273  0.000000  0.000000  0.000000  -25.66631926606245  -1.8500985587365104  48.71656661025532  45.838601729398654  -27.355213089368647  -40.31501964528872  43.873079165082366  15.072348304442743  -3.6062753836790424  24.72035580010743  0.000000
0.312  0.000000  0.000000  0.000000  -25.599945053492718  -1.972552938605206  48.47788780654224  46.177003208260935  -27.076041671046365  -39.954014252478416  45.414352064510865  16.618815504127028  -6.174442999728547  24.63868150670797  0.000000
0.351  0.000000  0.000000  0.000000  -25.592155853690976  -2.0918950845254107  48.25653231754123  46.54821757557689  -26.785557617411897  -39.560588179803766  47.14279939483823  18.566894676410406  -9.137942612735127  24.58539723278428  0.000000
0.39  0.000000  0.000000  0.000000  -25.57975392094467  -2.1908654589683567  48.05243336021725  46.973562999250525  -26.452195414444432  -39.11895232965503  48.91974932289073  20.76679844519354  -12.369234147534382  24.57090680009571  0.000000
0.429  0.000000  0.000000  0.000000  -25.533788386209746  -2.2534735777453947  47.88376016792763  47.47542063161679  -26.0365122176668  -38.617093650460376  50.611366386226145  23.06224076613798  -15.658526924222866  24.616495728591868  0.000000
0.46799999999999997  0.000000  0.000000  0.000000  -25.44147262332811  -2.269380256649407  47.76528380414609  48.05557425126307  -25.53777288328134  -38.04511405504426  52.092874652074556  25.35141682042271  -18.83095250108657  24.71705646819984  0.000000
0.507  0.000000  0.000000  0.000000  -25.307404939476008  -2.2384858780436687  47.684356381923024  48.70168971537813  -24.97022723927358  -37.389925948235785  53.30507094844101  27.608593027342476  -21.78115645180016  24.841273191447343  0.000000
0.546  0.000000  0.000000  0.000000  -25.126542377426475  -2.159273571936059  47.619648488445904  49.384884622493445  -24.35111045386844  -36.639462358489936  54.230312891119965  29.837344789588588  -24.476806032576402  24.957912069752965  0.000000
0.585  0.000000  0.000000  0.000000  -24.91107031753439  -2.022499099595043  47.55700201756836  50.082426370708966  -23.690662985186474  -35.798076189422254  54.902955341902825  32.048531133926375  -26.942320580966395  25.050060392195316  0.000000
0.624  0.000000  0.000000  0.000000  -24.70250937733172  -1.8123129610637958  47.48211254481736  50.767861100644424  -22.996550391613553  -34.86894483816469  55.38158415473504  34.244634996526464  -29.250422369827966  25.11068169999954  0.000000
0.663  0.000000  0.000000  0.000000  -24.559531907197435  -1.5142287590961172  47.3974073406651  51.43165172927359  -22.286308864518944  -33.84199325942284  55.7340876051413  36.40879619120103  -31.484460780149355  25.13250675002974  0.000000
0.702  0.000000  0.000000  0.000000  -24.503579459639848  -1.1231845491264947  47.30768149226636  52.073389394449755  -21.563319340452388  -32.71521157357317  56.02035165583132  38.51048178695788  -33.707565405449586  25.116279666292243  0.000000
0.741  0.000000  0.000000  0.000000  -24.533152519882904  -0.6351000874648078  47.220917330949376  52.709627126417686  -20.843833822131067  -31.447580928449586  56.25145256323782  40.48836026946881  -35.88856037829958  25.058760304187064  0.000000
0.78  0.000000  0.000000  0.000000  -24.654544109271253  -0.041500991880149565  47.11209649548338  53.37307975162027  -20.149053730445374  -29.96121809711538  56.388264744310426  42.29673194333421  -37.90455937306617  24.97226722162023  0.000000
0.819  0.000000  0.000000  0.000000  -24.86007034674786  0.6409869982465891  46.92823792503397  54.10735972437757  -19.488386604816807  -28.208760983157386  56.3508663459573  43.957989258449366  -39.60799592159263  24.833078765809315  0.000000
0.858  0.000000  0.000000  0.000000  -25.101935986786952  1.3675577086120945  46.63336512470569  54.91301212529582  -18.829390103005977  -26.255228558125737  56.085710859020544  45.533224375009375  -40.94174859256022  24.645957857567826  0.000000
0.897  0.000000  0.000000  0.000000  -25.320174362983582  2.0681716512406743  46.21886635570349  55.69793848597223  -18.04877594714683  -24.304214188294104  55.70091946886708  47.086362867044244  -41.95659520096762  24.472147272188742  0.000000
0.9359999999999999  0.000000  0.000000  0.000000  -25.504845378242052  2.707145788379191  45.68011321248749  56.38817399842392  -17.08851665864854  -22.474861356514626  55.28783588320214  48.63127265019591  -42.7231831030045  24.358185623207  0.000000
0.975  0.000000  0.000000  0.000000  -25.694353586496046  3.308568442500882  45.02028014899427  56.97848558939307  -16.00710626585684  -20.744812667231763  54.846152025704136  50.14336747841104  -43.28741048780526  24.305554750363616  0.000000
1.014  0.000000  0.000000  0.000000  -25.910203386725474  3.878605950587605  44.24888052140937  57.48561697375203  -14.832083446736249  -19.088125097097837  54.382561195592956  51.59378346373735  -43.687991687567106  24.30311929602347  0.000000
1.053  0.000000  0.000000  0.000000  -26.147828396738454  4.419211992747466  43.38246869010039  57.92422933889762  -13.567684108080595  -17.48965485535005  53.905026942639864  52.966698692228825  -43.966634373186444  24.32434132435869  0.000000
1.092  0.000000  0.000000  0.000000  -26.39694570645774  4.93351981014286  42.42973933600114  58.2969690691894  -12.207313113350429  -15.93761723261901  53.426432209692244  54.262104307610876  -44.17224408064353  24.342576478932582  0.000000
1.131  0.000000  0.000000  0.000000  -26.657854475474874  5.423939223735364  41.41559987819056  58.605089950357694  -10.760108323578487  -14.429871726548289  52.96054438081845  55.475226353487784  -44.34986931378063  24.34299352262086  0.000000
1.17  0.000000  0.000000  0.000000  -26.941734711469106  5.896668377012379  40.385471139217536  58.8459787570621  -9.262690554960077  -12.974470004113119  52.53039518102399  56.58731804537261  -44.540475390517976  24.322480295076016  0.000000
1.209  0.000000  0.000000  0.000000  -27.265767349159432  6.352523165379501  39.40367081458601  59.02447408071381  -7.772236111790923  -11.586876959309908  52.15896634998795  57.57155727406708  -44.76925105642795  24.281309815437737  0.000000
1.248  0.000000  0.000000  0.000000  -27.630279985785297  6.796790148045665  38.53041528898602  59.1491574841755  -6.344743374477985  -10.274857967871107  51.849127881143346  58.40858821384538  -45.02836056744938  24.215768006842737  0.000000
1.287  0.000000  0.000000  0.000000  -28.019211430884255  7.23253256973477  37.81745177056312  59.23528401325231  -5.033283529098168  -9.038250519883558  51.575372584260855  59.10172442279744  -45.260250228666166  24.10948784348233  0.000000
1.326  0.000000  0.000000  0.000000  -28.40350789767888  7.66303332482253  37.29245759914647  59.30133372226354  -3.8802220973596735  -7.869778162541817  51.29389354058982  59.67645936711751  -45.38453035262477  23.93996381098448  0.000000
1.365  0.000000  0.000000  0.000000  -28.759165650779437  8.086739019329787  36.94374959158988  59.36372299067088  -2.9009331828693394  -6.759721784539827  50.96976016877506  60.16916507523053  -45.34092331841151  23.693172561204452  0.000000
1.404  0.000000  0.000000  0.000000  -29.082359905349968  8.493783704229422  36.73907438519755  59.43312947350049  -2.090488606928176  -5.714895866145074  50.59902544980126  60.610908680988615  -45.137884278304874  23.387808611164676  0.000000
1.443  0.000000  0.000000  0.000000  -29.38531487332469  8.864944624988945  36.62986259834365  59.5138361217666  -1.4230927346425082  -4.754957787752041  50.207079713956574  61.0183877320461  -44.844875671146305  23.068967435822028  0.000000
1.482  0.000000  0.000000  0.000000  -29.680954990059675  9.17842529514445  36.582959553182675  59.60556418042058  -0.8757222045747459  -3.9122915826308002  49.8325892073508  61.390993752805535  -44.55504132736925  22.784948718954833  0.000000
1.521  0.000000  0.000000  0.000000  -29.97391194381188  9.422315368710926  36.581198581761114  59.70631128382771  -0.4356271120875665  -3.2090461454896335  49.50814300265879  61.716907279386916  -44.33042808748078  22.559032588347346  0.000000
1.56  0.000000  0.000000  0.000000  -30.25075100804261  9.598466968690568  36.62539309697539  59.81059311080991  -0.10560631113998697  -2.6571983997067927  49.255632956065774  61.98448069170026  -44.18746359146625  22.37922578290317  0.000000
1.599  0.000000  0.000000  0.000000  -30.48416331188112  9.71655692643613  36.71689358683482  59.91007679711305  0.10862113856032492  -2.255234355186424  49.085317567635045  62.184353173977456  -44.107063687756835  22.213726312031348  0.000000
1.638  0.000000  0.000000  0.000000  -30.649625780994555  9.78718316924973  36.85654803223592  59.99515379721989  0.19986842539698021  -2.0036298088381996  49.00326636805882  62.309676509243964  -44.062765609424275  22.040347508275126  0.000000
1.677  0.000000  0.000000  0.000000  -30.739157090921815  9.817393215096237  37.03629193931499  60.05582680912016  0.1679324714456295  -1.905469147629741  49.01192800068625  62.34807125739342  -44.02889627687272  21.86764380478079  0.000000
1.716  0.000000  0.000000  0.000000  -30.761858396333473  9.812869178069736  37.24462439251503  60.083412927276186  0.013927856011488573  -1.970145745892278  49.10840268065415  62.28370827304919  -43.98258801012685  21.727373919892013  0.000000
1.755  0.000000  0.000000  0.000000  -30.732185497577007  9.777116109827517  37.46612352508317  60.07055887885119  -0.2576104280953041  -2.2041377572420933  49.27861559168109  62.09853560670765  -43.897116486871525  21.654449196925132  0.000000
1.794  0.000000  0.000000  0.000000  -30.658726653317256  9.705593078991713  37.67743039606427  60.01834113096839  -0.6330149593300459  -2.607682026357865  49.493913084620466  61.78373639034976  -43.7390724203689  21.66185923559785  0.000000
1.833  0.000000  0.000000  0.000000  -30.5374721371217  9.580437647001698  37.84218781777377  59.932357244544306  -1.075871698080649  -3.16917823517755  49.71836809664797  61.33585136343305  -43.46885509242782  21.740439365711648  0.000000
